<svg id="visual" viewBox="0 0 900 600" width="900" height="600" xmlns="http://www.w3.org/2000/svg" xmlns:xlink="http://www.w3.org/1999/xlink" version="1.1"><g transform="translate(454.88828133791054 313.32578191047617)"><path d="M108.5 -169.2C149.5 -142.5 197.5 -127.4 229.1 -94.1C260.7 -60.8 275.9 -9.5 265.3 35.5C254.7 80.5 218.4 119.2 182.2 154.1C146 189 109.9 220.2 70.6 224.4C31.3 228.7 -11.3 206 -54.7 191C-98.1 176.1 -142.4 168.9 -182.9 145.5C-223.4 122.1 -260.2 82.4 -273 35.3C-285.9 -11.7 -274.8 -66.1 -250.4 -112.2C-226 -158.3 -188.1 -196.1 -144.2 -221.3C-100.2 -246.6 -50.1 -259.3 -8.2 -246.6C33.8 -233.9 67.6 -195.8 108.5 -169.2" fill="#172573"></path></g></svg>